<?xml version="1.0" encoding="UTF-8" standalone="no"?>
<!-- Created with Inkscape (http://www.inkscape.org/) -->

<svg
   width="210mm"
   height="297mm"
   viewBox="0 0 210 297"
   version="1.1"
   id="svg1"
   xml:space="preserve"
   xmlns="http://www.w3.org/2000/svg"
   xmlns:svg="http://www.w3.org/2000/svg"><defs
     id="defs1"><clipPath
       clipPathUnits="userSpaceOnUse"
       id="clipPath27"><path
         id="path28"
         style="fill:#ff0000;fill-opacity:1;fill-rule:nonzero;stroke:none;stroke-width:0.264583"
         d="M 53.280469,70.854073 V 198.48763 H 140.15062 V 70.854073 H 96.766187 c 0.0021,0.0047 0.0045,0.0092 0.0067,0.01394 0.0097,0.0114 0.01955,0.02217 0.02894,0.03462 0.117671,0.186529 0.195818,0.391507 0.252698,0.604097 l 5.29e-4,5.29e-4 c 0.03687,0.05871 0.07328,0.117893 0.109554,0.176734 0.195458,0.354597 0.365143,0.724524 0.505393,1.104842 0.01939,0.02906 0.04011,0.05718 0.05943,0.0863 0.123693,0.17934 0.240224,0.363739 0.363803,0.543121 0.124322,0.172296 0.243591,0.347705 0.367421,0.52038 0.08759,0.127053 0.177239,0.253351 0.249079,0.390157 0.02955,0.05717 0.06591,0.110082 0.103354,0.162264 0.195969,0.273166 -0.08166,0.4714 -0.276471,0.197405 -0.04654,-0.06546 -0.09132,-0.132045 -0.128156,-0.203605 -0.06239,-0.123198 -0.147519,-0.233603 -0.223758,-0.3483 -0.125072,-0.174408 -0.245465,-0.351531 -0.371039,-0.52555 -0.03785,-0.05494 -0.07419,-0.110857 -0.111104,-0.166396 -0.0088,0.0024 -0.01831,0.0044 -0.02842,0.0052 0.0099,0.05207 0.0196,0.104191 0.02791,0.156581 0.03747,0.23241 0.07856,0.46415 0.12454,0.695047 0.0086,0.05072 0.01675,0.101547 0.02429,0.152445 0.01487,0.04118 0.02985,0.08241 0.04496,0.123507 0.01064,0.02894 0.05288,0.06314 0.03256,0.0863 -0.0072,0.0082 -0.0123,0.01254 -0.01913,0.02016 -0.01061,0.01185 -0.01916,0.02151 -0.02894,0.03204 0.0057,0.07518 0.0093,0.150638 0.0078,0.226343 1.19e-4,0.04679 -0.007,0.09325 -0.0078,0.140041 0.101372,0.24896 0.196728,0.500565 0.269753,0.759643 0.04371,0.144497 0.214871,0.600464 0.08268,0.726054 -0.05052,0.048 -0.120814,0.06598 -0.189654,0.08578 0.04814,0.07594 0.09659,0.151781 0.147278,0.225827 0.04438,0.06068 0.02207,0.02987 0.06615,0.09198 0.194627,0.274119 -0.0825,0.470598 -0.276985,0.196368 -0.04348,-0.06131 -0.02035,-0.02873 -0.06977,-0.09663 -0.08179,-0.119663 -0.169974,-0.236133 -0.235643,-0.365869 -0.09177,-0.179578 -0.188913,-0.356502 -0.275953,-0.538469 -0.02074,-0.04115 -0.03787,-0.08406 -0.05788,-0.125574 -0.04311,-0.05508 -0.08617,-0.11026 -0.128675,-0.165881 -0.125553,-0.166727 -0.267428,-0.32096 -0.376722,-0.49971 -0.106267,-0.163777 -0.218374,-0.323422 -0.331245,-0.482659 -0.08218,-0.124039 -0.169227,-0.245202 -0.238228,-0.377237 -0.03624,-0.06094 -0.07212,-0.122023 -0.110072,-0.181901 -0.06439,0.08521 -0.132614,0.167722 -0.206706,0.245462 -0.175887,0.197239 -0.356928,0.390744 -0.547251,0.574124 -0.133072,0.11906 -0.273648,0.228918 -0.405143,0.349851 -0.241689,0.222269 -0.475975,0.131903 -0.484209,-0.05323 -0.172555,0.0409 -0.321722,-0.124309 -0.205155,-0.393774 0.0033,-0.04339 0.0044,-0.08653 0.0341,-0.140044 0.05809,-0.104635 0.09267,-0.219925 0.13281,-0.332798 -0.0765,0.04098 -0.159499,0.05976 -0.250632,0.03566 -0.112768,-0.02949 -0.207994,-0.08407 -0.256831,-0.195852 -0.03528,-0.110339 -0.03424,-0.221933 -0.02894,-0.336931 0.0028,-0.155781 0.0073,-0.311507 0.01447,-0.467156 0.0027,-0.05709 0.0052,-0.11397 0.0083,-0.171048 -0.0095,-0.0076 -0.01876,-0.01545 -0.02842,-0.02273 -7.93e-4,0.0021 -0.0016,0.0042 -0.0026,0.0062 -0.0011,0.0027 -0.0013,-0.0033 0,-0.0083 -0.004,-0.003 -0.0078,-0.0063 -0.01188,-0.0093 0.01847,-0.06315 0.0375,-0.12609 0.05633,-0.189135 0.009,-0.137498 0.01976,-0.274751 0.03359,-0.411861 0.02577,-0.251243 0.04097,-0.503269 0.06718,-0.754475 0.02135,-0.206722 0.05325,-0.413102 0.131257,-0.607198 0.0946,-0.203155 0.20447,-0.34476 0.395325,-0.467672 0.08398,-0.04928 0.17096,-0.09352 0.260966,-0.129709 z m 40.648681,2.569352 c 7.93e-4,5.3e-4 0.0016,0.0013 0.0026,0.0021 0.0011,-0.0024 0.0021,-0.0048 0.0031,-0.0072 -7.94e-4,-1.16e-4 -0.0013,-5.29e-4 -0.0021,-5.29e-4 -0.0019,-2.65e-4 -0.0029,0.0026 -0.0036,0.0057 z m 1.865521,-2.503723 c -0.0118,0.08057 -0.02572,0.160592 -0.04289,0.240295 -0.01101,0.0524 -0.02421,0.104286 -0.03566,0.15658 0.02683,-0.06561 0.05719,-0.129198 0.09043,-0.189653 -7.94e-4,-0.05343 -0.0055,-0.106738 -0.0047,-0.160197 2.09e-4,-0.0127 0.0013,-0.02392 0.0026,-0.03566 -0.0034,-0.0037 -0.0064,-0.0078 -0.0098,-0.01138 z m -0.06873,2.592089 c -7.93e-4,0.0024 -0.0013,0.0048 -0.0021,0.0072 l 0.0031,-0.0052 c -2.64e-4,-7.94e-4 -7.93e-4,-0.0013 -0.0011,-0.0021 z m -0.79375,1.354958 c -0.01553,0.03323 -0.03282,0.06558 -0.04858,0.0987 0.03098,-0.02593 0.06224,-0.05187 0.09302,-0.07803 -0.02185,-0.01161 -0.0191,-0.0072 -0.04444,-0.02066 z m 3.198255,1.377693 c 0.0019,0.0021 0.0036,0.0043 0.0057,0.0062 0.0019,0.0019 0.0098,0.0035 0.0078,0.0021 -0.0043,-0.0029 -0.009,-0.0055 -0.01344,-0.0083 z" /></clipPath></defs><path
     style="fill:none;fill-opacity:1;stroke:#333333;stroke-width:0.8;stroke-linejoin:round;stroke-dasharray:none;stroke-opacity:1"
     d="m 95.670114,74.538161 c -1.674834,-2.029495 1.000206,-5.53247 0.97755,1.331932 1.850727,21.319093 35.090956,45.782677 41.616956,75.224367 4.24112,19.13358 -6.25833,46.05435 -42.978722,46.39325 -30.77332,-0.0958 -41.898892,-19.55222 -40.950234,-41.18458 1.277725,-29.13613 40.195662,-60.176034 41.33445,-81.764969 z"
     id="path5"
     clip-path="url(#clipPath27)" /><path
     style="fill:none;fill-opacity:1;stroke:#333333;stroke-width:0.8;stroke-linejoin:round;stroke-dasharray:none;stroke-opacity:1"
     d="m 115.7655,180.70277 c 0,0 10.87056,0 12.89299,-14.86037"
     id="path6" /></svg>
