<svg width="50" height="50" viewBox="0 0 50 50" fill="none" xmlns="http://www.w3.org/2000/svg">
<path fill-rule="evenodd" clip-rule="evenodd" d="M24.9826 0C11.1851 0 0 11.1929 0 25C0 38.8071 11.1851 50 24.9826 50C38.7801 50 49.9651 38.8071 49.9651 25C49.9651 11.1929 38.7801 0 24.9826 0ZM19.4898 11.7472C20.9111 11.6825 21.3652 11.6667 24.9838 11.6667H24.9797C28.5994 11.6667 29.0519 11.6825 30.4731 11.7472C31.8916 11.8122 32.8603 12.0369 33.7098 12.3667C34.5869 12.707 35.3281 13.1625 36.0692 13.9042C36.8104 14.6453 37.2656 15.3892 37.6071 16.2662C37.9346 17.1139 38.1595 18.0828 38.2261 19.5023C38.2899 20.9245 38.3066 21.379 38.3066 25.0001C38.3066 28.6213 38.2899 29.0746 38.2261 30.4969C38.1595 31.9158 37.9346 32.8849 37.6071 33.733C37.2656 34.6097 36.8104 35.3536 36.0692 36.0947C35.3289 36.8364 34.5867 37.293 33.7106 37.6336C32.8628 37.9633 31.8935 38.1881 30.475 38.2531C29.0538 38.3178 28.601 38.3336 24.9821 38.3336C21.3638 38.3336 20.9099 38.3178 19.4887 38.2531C18.0705 38.1881 17.102 37.9633 16.2543 37.6336C15.3785 37.293 14.6351 36.8364 13.8948 36.0947C13.1539 35.3536 12.6986 34.6097 12.358 33.7327C12.0288 32.8849 11.8043 31.916 11.739 30.4966C11.6746 29.0743 11.6585 28.6213 11.6585 25.0001C11.6585 21.379 11.6752 20.9243 11.7388 19.502C11.8026 18.0831 12.0274 17.1139 12.3578 16.2659C12.6992 15.3892 13.1544 14.6453 13.8956 13.9042C14.6362 13.1628 15.3796 12.7072 16.2559 12.3667C17.1031 12.0369 18.0713 11.8122 19.4898 11.7472Z" fill="white"/>
<path fill-rule="evenodd" clip-rule="evenodd" d="M23.7885 14.0695C24.0206 14.0691 24.2703 14.0692 24.5398 14.0694L24.9838 14.0695C28.5414 14.0695 28.963 14.0823 30.3679 14.1462C31.667 14.2056 32.3721 14.4228 32.8418 14.6053C33.4636 14.847 33.9069 15.1359 34.3729 15.6026C34.8393 16.0692 35.128 16.5137 35.37 17.1359C35.5524 17.6054 35.7698 18.3109 35.8289 19.6109C35.8927 21.0165 35.9066 21.4387 35.9066 24.9971C35.9066 28.5555 35.8927 28.9777 35.8289 30.3833C35.7695 31.6833 35.5524 32.3889 35.37 32.8583C35.1285 33.4805 34.8393 33.9236 34.3729 34.39C33.9066 34.8567 33.4638 35.1456 32.8418 35.3872C32.3726 35.5706 31.667 35.7872 30.3679 35.8467C28.9633 35.9106 28.5414 35.9244 24.9838 35.9244C21.426 35.9244 21.0044 35.9106 19.5998 35.8467C18.3007 35.7867 17.5956 35.5694 17.1256 35.3869C16.5038 35.1453 16.0597 34.8564 15.5933 34.3897C15.127 33.923 14.8383 33.4797 14.5963 32.8572C14.4139 32.3877 14.1965 31.6822 14.1374 30.3822C14.0736 28.9766 14.0608 28.5544 14.0608 24.9938C14.0608 21.4332 14.0736 21.0132 14.1374 19.6076C14.1968 18.3076 14.4139 17.602 14.5963 17.132C14.8378 16.5098 15.127 16.0653 15.5933 15.5987C16.0597 15.132 16.5038 14.8431 17.1256 14.6009C17.5953 14.4176 18.3007 14.2009 19.5998 14.1412C20.8289 14.0856 21.3053 14.0689 23.7885 14.0662V14.0695ZM32.0962 16.2834C31.2134 16.2834 30.4973 16.9992 30.4973 17.8829C30.4973 18.7662 31.2134 19.4829 32.0962 19.4829C32.9789 19.4829 33.6951 18.7662 33.6951 17.8829C33.6951 16.9995 32.9789 16.2829 32.0962 16.2829V16.2834ZM18.1413 25.0002C18.1413 21.2188 21.2049 18.153 24.9836 18.1529C28.7624 18.1529 31.8252 21.2187 31.8252 25.0002C31.8252 28.7816 28.7626 31.8461 24.9838 31.8461C21.205 31.8461 18.1413 28.7816 18.1413 25.0002Z" fill="white"/>
<path d="M24.9839 20.5557C27.4366 20.5557 29.4253 22.5454 29.4253 25.0002C29.4253 27.4546 27.4366 29.4446 24.9839 29.4446C22.5308 29.4446 20.5425 27.4546 20.5425 25.0002C20.5425 22.5454 22.5308 20.5557 24.9839 20.5557Z" fill="white"/>
</svg>
