<svg width="149" height="35" viewBox="0 0 149 35" fill="none" xmlns="http://www.w3.org/2000/svg">
<path d="M1.008 26C1.296 24.8 1.68 23.468 2.16 22.004C2.664 20.516 3.228 18.968 3.852 17.36C4.5 15.752 5.16 14.156 5.832 12.572C6.504 10.988 7.152 9.476 7.776 8.036C8.4 6.572 9.12 5.096 9.936 3.608C10.104 3.32 10.248 3.056 10.368 2.816C10.512 2.576 10.668 2.372 10.836 2.204C9.9 2.228 8.892 2.348 7.812 2.564C6.756 2.756 5.736 3.032 4.752 3.392C3.792 3.752 2.964 4.172 2.268 4.652C1.596 5.132 1.164 5.66 0.972 6.236C0.948 6.308 0.9 6.344 0.828 6.344C0.612 6.344 0.504 6.176 0.504 5.84C0.504 5.768 0.528 5.66 0.576 5.516C0.792 4.892 1.056 4.34 1.368 3.86C1.704 3.38 2.04 2.972 2.376 2.636C3.168 1.82 4.056 1.328 5.04 1.16C6.024 0.967999 7.068 0.872 8.172 0.872H17.28C18.936 0.872 20.256 1.124 21.24 1.628C22.248 2.132 22.968 2.804 23.4 3.644C23.832 4.46 24 5.336 23.904 6.272C23.736 8.168 23.064 9.74 21.888 10.988C20.736 12.212 19.38 13.124 17.82 13.724C16.74 14.132 15.516 14.468 14.148 14.732C12.78 14.972 11.448 15.092 10.152 15.092C9.864 15.092 9.576 15.092 9.288 15.092C9.024 15.068 8.76 15.044 8.496 15.02C8.184 15.788 7.848 16.652 7.488 17.612C7.152 18.548 6.828 19.496 6.516 20.456C6.228 21.416 5.988 22.316 5.796 23.156C5.604 23.972 5.508 24.656 5.508 25.208C5.508 25.568 5.556 25.832 5.652 26H1.008ZM8.712 14.444C9.816 14.468 10.968 14.372 12.168 14.156C13.368 13.916 14.52 13.532 15.624 13.004C16.728 12.452 17.664 11.744 18.432 10.88C18.984 10.256 19.416 9.548 19.728 8.756C20.04 7.94 20.196 7.148 20.196 6.38C20.196 5.396 19.944 4.508 19.44 3.716C18.936 2.924 18.132 2.408 17.028 2.168C16.74 2.096 16.452 2.048 16.164 2.024C15.876 2 15.564 1.976 15.228 1.952C14.7 2.6 14.16 3.392 13.608 4.328C13.056 5.264 12.516 6.248 11.988 7.28C11.484 8.288 11.004 9.272 10.548 10.232C10.116 11.168 9.756 11.984 9.468 12.68L8.712 14.444ZM20.32 26.216C19.696 26.216 19.18 25.928 18.772 25.352C18.388 24.752 18.244 23.828 18.34 22.58C18.388 22.052 18.508 21.38 18.7 20.564C18.892 19.748 19.144 18.872 19.456 17.936C19.792 16.976 20.164 16.052 20.572 15.164C20.98 14.252 21.424 13.448 21.904 12.752C22.168 12.392 22.432 12.176 22.696 12.104C22.984 12.008 23.5 11.96 24.244 11.96H25.972C25.564 12.536 25.132 13.256 24.676 14.12C24.22 14.984 23.8 15.848 23.416 16.712C23.032 17.552 22.732 18.26 22.516 18.836C22.468 19.004 22.372 19.304 22.228 19.736C22.084 20.144 21.952 20.6 21.832 21.104C21.712 21.608 21.652 22.076 21.652 22.508C21.652 22.892 21.724 23.216 21.868 23.48C22.012 23.744 22.276 23.876 22.66 23.876C23.116 23.852 23.608 23.564 24.136 23.012C24.664 22.46 25.192 21.752 25.72 20.888C26.248 20.024 26.764 19.124 27.268 18.188C27.796 17.228 28.264 16.34 28.672 15.524C29.104 14.684 29.464 14.036 29.752 13.58C30.112 13.028 30.496 12.548 30.904 12.14C31.312 11.708 31.78 11.492 32.308 11.492C32.5 11.492 32.752 11.504 33.064 11.528C33.4 11.528 33.724 11.528 34.036 11.528C34.372 11.528 34.6 11.516 34.72 11.492C34.576 11.588 34.408 11.78 34.216 12.068C34.024 12.356 33.832 12.656 33.64 12.968C33.472 13.256 33.34 13.496 33.244 13.688C32.62 14.936 32.008 16.196 31.408 17.468C30.832 18.716 30.4 19.904 30.112 21.032C29.992 21.464 29.932 21.836 29.932 22.148C29.932 22.868 30.172 23.228 30.652 23.228C30.988 23.228 31.468 22.988 32.092 22.508C32.572 22.124 33.04 21.632 33.496 21.032C34 20.408 34.468 19.736 34.9 19.016C35.332 18.296 35.704 17.636 36.016 17.036C36.112 16.868 36.196 16.784 36.268 16.784C36.412 16.784 36.484 16.976 36.484 17.36C36.484 17.552 36.448 17.78 36.376 18.044C36.328 18.284 36.232 18.524 36.088 18.764C35.752 19.34 35.356 19.976 34.9 20.672C34.444 21.344 33.976 22.016 33.496 22.688C33.16 23.12 32.716 23.612 32.164 24.164C31.612 24.716 31.024 25.196 30.4 25.604C29.8 26.012 29.212 26.216 28.636 26.216C28.3 26.216 27.988 26.144 27.7 26C27.412 25.88 27.172 25.628 26.98 25.244C26.74 24.74 26.62 24.056 26.62 23.192C26.62 22.928 26.632 22.652 26.656 22.364C26.68 22.052 26.716 21.74 26.764 21.428C26.404 21.932 26.02 22.4 25.612 22.832C25.228 23.264 24.832 23.696 24.424 24.128C23.512 25.04 22.732 25.616 22.084 25.856C21.46 26.096 20.872 26.216 20.32 26.216ZM40.6679 26.252C39.8999 26.252 39.3479 25.928 39.0119 25.28C38.7479 24.704 38.6159 24.02 38.6159 23.228C38.6159 22.34 38.7479 21.356 39.0119 20.276C39.2759 19.196 39.6359 18.092 40.0919 16.964C40.2599 16.556 40.4759 16.04 40.7399 15.416C41.0279 14.792 41.3639 14.18 41.7479 13.58C41.4119 13.868 41.0159 14.108 40.5599 14.3C40.1039 14.468 39.6599 14.552 39.2279 14.552C38.8919 14.552 38.6159 14.504 38.3999 14.408C38.2079 14.792 37.8959 15.416 37.4639 16.28C37.0319 17.144 36.4559 18.164 35.7359 19.34C35.6639 19.46 35.5919 19.46 35.5199 19.34C35.4719 19.196 35.4479 19.004 35.4479 18.764C35.4479 18.572 35.4719 18.368 35.5199 18.152C35.5679 17.936 35.6399 17.732 35.7359 17.54C35.9759 17.084 36.2159 16.616 36.4559 16.136C36.6959 15.632 36.9119 15.188 37.1039 14.804C37.2959 14.42 37.4039 14.18 37.4279 14.084C36.9959 13.868 36.6719 13.568 36.4559 13.184C36.2399 12.776 36.1319 12.38 36.1319 11.996C36.1319 11.612 36.2159 11.264 36.3839 10.952C36.5759 10.64 36.8519 10.4 37.2119 10.232C37.4279 10.16 37.6319 10.124 37.8239 10.124C38.3519 10.124 38.7839 10.292 39.1199 10.628C39.0959 10.724 39.0719 10.832 39.0479 10.952C39.0479 11.048 39.0479 11.156 39.0479 11.276C39.0479 12.02 39.3479 12.572 39.9479 12.932C40.5479 13.292 41.1959 13.424 41.8919 13.328C42.2279 12.848 42.6119 12.428 43.0439 12.068C43.4759 11.708 43.9439 11.528 44.4479 11.528C44.7119 11.528 45.0839 11.54 45.5639 11.564C46.0679 11.588 46.4279 11.588 46.6439 11.564C46.4999 11.66 46.3319 11.852 46.1399 12.14C45.9479 12.428 45.7679 12.728 45.5999 13.04C45.4319 13.352 45.2999 13.592 45.2039 13.76C44.5559 15.008 43.9559 16.256 43.4039 17.504C42.8519 18.728 42.4319 19.904 42.1439 21.032C42.0959 21.248 42.0479 21.452 41.9999 21.644C41.9759 21.812 41.9639 21.992 41.9639 22.184C41.9639 22.904 42.2039 23.264 42.6839 23.264C43.0199 23.264 43.4999 23.024 44.1239 22.544C44.6759 22.088 45.1679 21.584 45.5999 21.032C46.0799 20.408 46.5359 19.736 46.9679 19.016C47.3999 18.296 47.7719 17.636 48.0839 17.036C48.2039 16.844 48.2879 16.748 48.3359 16.748C48.4799 16.748 48.5519 16.964 48.5519 17.396C48.5519 17.564 48.5279 17.768 48.4799 18.008C48.4319 18.248 48.3479 18.476 48.2279 18.692C47.8679 19.292 47.4599 19.952 47.0039 20.672C46.5479 21.368 46.0799 22.052 45.5999 22.724C45.2879 23.156 44.8439 23.648 44.2679 24.2C43.7159 24.752 43.1159 25.232 42.4679 25.64C41.8439 26.048 41.2439 26.252 40.6679 26.252ZM55.1745 25.496C54.0705 26.072 52.9065 26.36 51.6825 26.36C50.6505 26.36 49.6905 26.108 48.8025 25.604C47.9145 25.1 47.3145 24.296 47.0025 23.192C46.8585 22.688 46.7865 22.16 46.7865 21.608C46.7865 20.696 46.9425 19.76 47.2545 18.8C47.5905 17.816 48.0225 16.916 48.5505 16.1C49.3665 14.828 50.3985 13.772 51.6465 12.932C52.8945 12.092 54.2745 11.672 55.7865 11.672C56.9145 11.672 57.7905 11.96 58.4145 12.536C59.0385 13.112 59.3505 13.784 59.3505 14.552C59.3505 15.464 59.0385 16.268 58.4145 16.964C57.8145 17.636 57.0225 18.152 56.0385 18.512C55.5585 18.68 55.0425 18.812 54.4905 18.908C53.9625 18.98 53.4585 19.016 52.9785 19.016C51.9945 19.016 51.2385 18.884 50.7105 18.62C50.2545 19.796 50.0265 20.876 50.0265 21.86C50.0265 22.748 50.2305 23.48 50.6385 24.056C51.0465 24.608 51.6945 24.884 52.5825 24.884C53.3265 24.884 54.0585 24.68 54.7785 24.272C55.5225 23.864 56.2065 23.36 56.8305 22.76C57.4785 22.16 58.0185 21.584 58.4505 21.032C58.7865 20.624 59.0745 20.24 59.3145 19.88C59.5545 19.52 59.8065 19.112 60.0705 18.656C60.3345 18.176 60.6465 17.588 61.0065 16.892C61.1025 16.724 61.1865 16.64 61.2585 16.64C61.4025 16.64 61.4745 16.832 61.4745 17.216C61.4745 17.432 61.4385 17.672 61.3665 17.936C61.3185 18.176 61.2225 18.428 61.0785 18.692C60.7425 19.292 60.3345 19.952 59.8545 20.672C59.3985 21.368 58.9305 22.04 58.4505 22.688C58.0185 23.264 57.5265 23.792 56.9745 24.272C56.4225 24.752 55.8225 25.16 55.1745 25.496ZM51.8985 17.828C52.0185 17.9 52.1505 17.948 52.2945 17.972C52.4385 17.996 52.5825 18.008 52.7265 18.008C53.2065 18.008 53.6865 17.9 54.1665 17.684C54.6465 17.444 55.0545 17.204 55.3905 16.964C55.9425 16.58 56.4105 16.124 56.7945 15.596C57.1785 15.068 57.3945 14.468 57.4425 13.796C57.4665 13.508 57.3945 13.268 57.2265 13.076C57.0825 12.86 56.8185 12.752 56.4345 12.752C56.2425 12.752 56.0025 12.788 55.7145 12.86C55.3305 12.956 54.9465 13.136 54.5625 13.4C54.1785 13.664 53.8065 13.976 53.4465 14.336C53.3265 14.456 53.1105 14.696 52.7985 15.056C52.5105 15.392 52.2345 15.776 51.9705 16.208C51.7065 16.616 51.5745 16.976 51.5745 17.288C51.5745 17.552 51.6825 17.732 51.8985 17.828ZM78.5458 26.72C77.3458 26.72 76.2298 26.612 75.1978 26.396C74.1658 26.18 73.3018 25.82 72.6058 25.316C72.1258 24.956 71.7538 24.5 71.4898 23.948C71.2498 23.396 71.1298 22.832 71.1298 22.256C71.1298 21.536 71.3338 20.864 71.7418 20.24C72.1498 19.616 72.7978 19.196 73.6858 18.98C73.8058 18.956 73.9138 18.944 74.0098 18.944C74.1298 18.92 74.2378 18.908 74.3338 18.908C74.8138 18.908 75.2338 19.016 75.5938 19.232C75.9778 19.448 76.2418 19.7 76.3858 19.988C76.2898 20.06 76.1578 20.192 75.9898 20.384C75.8218 20.552 75.7138 20.696 75.6658 20.816C75.3058 21.416 75.1258 22.016 75.1258 22.616C75.1258 23.432 75.4378 24.104 76.0618 24.632C76.7098 25.136 77.5498 25.388 78.5818 25.388C79.5178 25.388 80.3938 25.16 81.2098 24.704C82.0498 24.224 82.7218 23.588 83.2258 22.796C83.7538 22.004 84.0178 21.092 84.0178 20.06C84.0178 19.292 83.8378 18.476 83.4778 17.612C83.1658 16.868 82.7338 16.208 82.1818 15.632C81.6538 15.056 81.1498 14.516 80.6698 14.012C80.0218 13.316 79.3978 12.644 78.7978 11.996C78.2218 11.324 77.7418 10.604 77.3578 9.836C76.9978 9.044 76.8178 8.156 76.8178 7.172C76.8178 6.236 77.0098 5.324 77.3938 4.436C77.8018 3.548 78.3778 2.792 79.1218 2.168C79.9618 1.448 80.9218 0.943999 82.0018 0.655998C83.0818 0.367999 84.2098 0.223999 85.3858 0.223999C86.8498 0.223999 88.0018 0.415999 88.8418 0.799998C89.7058 1.16 90.3178 1.628 90.6778 2.204C91.0618 2.78 91.2538 3.392 91.2538 4.04C91.2538 4.664 91.1098 5.264 90.8218 5.84C90.5578 6.416 90.1858 6.908 89.7058 7.316C89.2258 7.7 88.6978 7.94 88.1218 8.036C88.0258 8.06 87.9298 8.072 87.8338 8.072C87.7378 8.072 87.6298 8.072 87.5098 8.072C86.9818 8.072 86.5138 7.952 86.1058 7.712C85.7218 7.472 85.5298 7.064 85.5298 6.488C85.5298 6.416 85.5298 6.332 85.5298 6.236C85.5538 6.14 85.5778 6.044 85.6018 5.948C86.0338 5.948 86.4778 5.792 86.9338 5.48C87.3898 5.168 87.6898 4.82 87.8338 4.436C87.9538 4.124 88.0138 3.836 88.0138 3.572C88.0138 2.924 87.7138 2.42 87.1138 2.06C86.5378 1.676 85.8538 1.484 85.0618 1.484C84.1258 1.484 83.2858 1.688 82.5418 2.096C81.8218 2.48 81.2578 2.996 80.8498 3.644C80.4418 4.268 80.2378 4.952 80.2378 5.696C80.2378 6.44 80.4658 7.16 80.9218 7.856C81.3058 8.408 81.7858 8.984 82.3618 9.584C82.9378 10.16 83.5258 10.724 84.1258 11.276C84.7258 11.804 85.2418 12.296 85.6738 12.752C86.6578 13.712 87.3658 14.696 87.7978 15.704C88.2298 16.688 88.4458 17.66 88.4458 18.62C88.4458 19.724 88.1818 20.768 87.6538 21.752C87.1498 22.712 86.4418 23.564 85.5298 24.308C84.6178 25.052 83.5618 25.64 82.3618 26.072C81.1618 26.504 79.8898 26.72 78.5458 26.72ZM83.7096 34.928C83.8296 34.76 83.9856 34.46 84.1776 34.028C84.3696 33.62 84.5736 33.176 84.7896 32.696C85.0056 32.216 85.1856 31.808 85.3296 31.472C85.7376 30.464 86.2056 29.228 86.7336 27.764C87.2616 26.324 87.8016 24.812 88.3536 23.228C88.9056 21.644 89.4336 20.132 89.9376 18.692C90.4416 17.252 90.8856 16.064 91.2696 15.128C91.6296 14.264 91.9416 13.58 92.2056 13.076C92.4696 12.548 92.8416 12.176 93.3216 11.96C93.8256 11.72 94.5816 11.6 95.5896 11.6H96.6696C96.3336 11.84 95.8896 12.392 95.3376 13.256C94.8096 14.096 94.3056 14.984 93.8256 15.92C93.9936 15.704 94.1496 15.5 94.2936 15.308C94.4376 15.092 94.5936 14.9 94.7616 14.732C95.5296 13.796 96.3456 13.016 97.2096 12.392C98.0736 11.768 98.9136 11.456 99.7296 11.456C100.402 11.456 100.966 11.708 101.422 12.212C101.902 12.716 102.142 13.568 102.142 14.768C102.142 15.872 101.926 16.988 101.494 18.116C101.086 19.22 100.534 20.276 99.8376 21.284C99.1416 22.268 98.3736 23.144 97.5336 23.912C97.3656 24.08 97.1736 24.248 96.9576 24.416C96.7656 24.56 96.5616 24.704 96.3456 24.848C97.1136 24.92 97.8696 24.74 98.6136 24.308C99.3816 23.876 100.078 23.348 100.702 22.724C101.35 22.1 101.878 21.536 102.286 21.032C102.766 20.408 103.246 19.688 103.726 18.872C104.23 18.056 104.638 17.336 104.95 16.712C105.046 16.544 105.13 16.46 105.202 16.46C105.394 16.46 105.49 16.676 105.49 17.108C105.49 17.492 105.37 17.888 105.13 18.296C104.938 18.656 104.674 19.112 104.338 19.664C104.002 20.216 103.702 20.696 103.438 21.104C102.334 22.712 101.05 24.032 99.5856 25.064C98.1216 26.096 96.3576 26.612 94.2936 26.612C94.1256 26.612 93.9456 26.612 93.7536 26.612C93.5856 26.612 93.4056 26.6 93.2136 26.576C92.6376 26.528 92.0976 26.384 91.5936 26.144C91.0896 25.928 90.7536 25.508 90.5856 24.884L88.5696 31.184C88.3056 32.024 88.0656 32.72 87.8496 33.272C87.6096 33.824 87.3216 34.232 86.9856 34.496C86.6256 34.784 86.1096 34.928 85.4376 34.928H83.7096ZM92.3856 25.064C92.7936 25.064 93.2616 24.86 93.7896 24.452C94.3176 24.02 94.8336 23.492 95.3376 22.868C95.8656 22.22 96.3096 21.596 96.6696 20.996C97.2216 20.036 97.6896 19.052 98.0736 18.044C98.4576 17.036 98.6496 16.208 98.6496 15.56C98.6496 14.84 98.3616 14.48 97.7856 14.48C97.2816 14.48 96.7296 14.72 96.1296 15.2C95.6976 15.536 95.2056 16.028 94.6536 16.676C94.1256 17.324 93.5976 18.056 93.0696 18.872C92.5656 19.664 92.1456 20.48 91.8096 21.32C91.4976 22.136 91.3416 22.88 91.3416 23.552C91.3416 23.672 91.3416 23.792 91.3416 23.912C91.3656 24.008 91.3896 24.116 91.4136 24.236C91.5336 24.788 91.8576 25.064 92.3856 25.064ZM114.474 26.216C113.73 26.216 113.214 25.928 112.926 25.352C112.662 24.776 112.53 24.068 112.53 23.228C112.53 22.46 112.602 21.704 112.746 20.96C112.818 20.624 112.89 20.288 112.962 19.952C113.058 19.592 113.166 19.22 113.286 18.836C112.878 19.58 112.446 20.3 111.99 20.996C111.558 21.692 111.114 22.304 110.658 22.832C109.89 23.768 109.074 24.548 108.21 25.172C107.37 25.796 106.53 26.108 105.69 26.108C105.018 26.108 104.442 25.868 103.962 25.388C103.506 24.884 103.278 24.02 103.278 22.796C103.278 21.548 103.494 20.264 103.926 18.944C104.358 17.624 104.958 16.4 105.726 15.272C106.518 14.12 107.442 13.196 108.498 12.5C109.578 11.804 110.754 11.456 112.026 11.456C112.434 11.456 112.878 11.516 113.358 11.636C113.838 11.756 114.282 11.984 114.69 12.32C115.098 12.632 115.374 13.076 115.518 13.652C115.542 13.604 115.566 13.568 115.59 13.544C115.638 13.52 115.674 13.496 115.698 13.472C116.034 12.944 116.418 12.5 116.85 12.14C117.282 11.78 117.762 11.6 118.29 11.6C118.554 11.6 118.926 11.612 119.406 11.636C119.886 11.66 120.234 11.66 120.45 11.636C120.33 11.732 120.162 11.924 119.946 12.212C119.754 12.5 119.574 12.8 119.406 13.112C119.238 13.4 119.106 13.628 119.01 13.796C118.362 15.044 117.774 16.28 117.246 17.504C116.718 18.728 116.31 19.904 116.022 21.032C115.95 21.272 115.902 21.5 115.878 21.716C115.854 21.908 115.842 22.1 115.842 22.292C115.842 22.916 116.046 23.228 116.454 23.228C116.838 23.228 117.318 22.988 117.894 22.508C118.734 21.836 119.466 20.996 120.09 19.988C120.738 18.98 121.302 18.008 121.782 17.072C121.878 16.904 121.962 16.82 122.034 16.82C122.178 16.82 122.25 17.024 122.25 17.432C122.25 17.624 122.214 17.84 122.142 18.08C122.094 18.32 122.01 18.548 121.89 18.764C121.554 19.34 121.11 20.048 120.558 20.888C120.03 21.728 119.43 22.556 118.758 23.372C118.086 24.164 117.378 24.836 116.634 25.388C115.914 25.94 115.194 26.216 114.474 26.216ZM107.31 23.084C107.382 23.108 107.49 23.12 107.634 23.12C108.09 23.12 108.582 22.928 109.11 22.544C109.638 22.16 110.166 21.668 110.694 21.068C111.222 20.444 111.69 19.82 112.098 19.196C113.154 17.516 113.934 16.256 114.438 15.416C114.942 14.576 115.23 14.096 115.302 13.976C115.182 13.568 114.966 13.268 114.654 13.076C114.366 12.884 114.018 12.788 113.61 12.788C113.082 12.788 112.518 12.932 111.918 13.22C111.342 13.508 110.85 13.856 110.442 14.264C109.818 14.888 109.218 15.692 108.642 16.676C108.09 17.66 107.634 18.632 107.274 19.592C106.938 20.552 106.77 21.356 106.77 22.004C106.77 22.604 106.95 22.964 107.31 23.084ZM125.189 26.36C124.061 26.36 123.149 26.156 122.453 25.748C121.757 25.316 121.253 24.752 120.941 24.056C120.653 23.336 120.509 22.568 120.509 21.752C120.509 20.936 120.629 20.108 120.869 19.268C121.109 18.428 121.433 17.636 121.841 16.892C122.681 15.38 123.713 14.132 124.937 13.148C126.185 12.164 127.709 11.672 129.509 11.672C130.637 11.672 131.513 11.96 132.137 12.536C132.761 13.112 133.073 13.784 133.073 14.552C133.073 15.272 132.857 15.932 132.425 16.532C132.017 17.132 131.465 17.432 130.769 17.432C130.385 17.432 130.049 17.324 129.761 17.108C129.473 16.892 129.329 16.556 129.329 16.1C129.329 16.028 129.329 15.956 129.329 15.884C129.353 15.788 129.377 15.692 129.401 15.596C129.545 15.572 129.749 15.536 130.013 15.488C130.301 15.416 130.529 15.248 130.697 14.984C131.009 14.552 131.165 14.12 131.165 13.688C131.165 13.424 131.081 13.208 130.913 13.04C130.769 12.848 130.517 12.752 130.157 12.752C129.509 12.752 128.849 12.992 128.177 13.472C127.505 13.928 126.869 14.54 126.269 15.308C125.693 16.076 125.189 16.916 124.757 17.828C124.085 19.292 123.749 20.636 123.749 21.86C123.749 22.748 123.953 23.48 124.361 24.056C124.769 24.608 125.417 24.884 126.305 24.884C127.433 24.884 128.489 24.5 129.473 23.732C130.481 22.94 131.381 22.028 132.173 20.996C132.701 20.324 133.169 19.64 133.577 18.944C134.009 18.248 134.369 17.612 134.657 17.036C134.753 16.868 134.837 16.784 134.909 16.784C135.053 16.784 135.125 16.988 135.125 17.396C135.125 17.588 135.089 17.816 135.017 18.08C134.969 18.32 134.885 18.548 134.765 18.764C134.357 19.436 133.937 20.108 133.505 20.78C133.097 21.452 132.653 22.088 132.173 22.688C131.357 23.744 130.397 24.62 129.293 25.316C128.189 26.012 126.821 26.36 125.189 26.36ZM141.8 25.496C140.696 26.072 139.532 26.36 138.308 26.36C137.276 26.36 136.316 26.108 135.428 25.604C134.54 25.1 133.94 24.296 133.628 23.192C133.484 22.688 133.412 22.16 133.412 21.608C133.412 20.696 133.568 19.76 133.88 18.8C134.216 17.816 134.648 16.916 135.176 16.1C135.992 14.828 137.024 13.772 138.272 12.932C139.52 12.092 140.9 11.672 142.412 11.672C143.54 11.672 144.416 11.96 145.04 12.536C145.664 13.112 145.976 13.784 145.976 14.552C145.976 15.464 145.664 16.268 145.04 16.964C144.44 17.636 143.648 18.152 142.664 18.512C142.184 18.68 141.668 18.812 141.116 18.908C140.588 18.98 140.084 19.016 139.604 19.016C138.62 19.016 137.864 18.884 137.336 18.62C136.88 19.796 136.652 20.876 136.652 21.86C136.652 22.748 136.856 23.48 137.264 24.056C137.672 24.608 138.32 24.884 139.208 24.884C139.952 24.884 140.684 24.68 141.404 24.272C142.148 23.864 142.832 23.36 143.456 22.76C144.104 22.16 144.644 21.584 145.076 21.032C145.412 20.624 145.7 20.24 145.94 19.88C146.18 19.52 146.432 19.112 146.696 18.656C146.96 18.176 147.272 17.588 147.632 16.892C147.728 16.724 147.812 16.64 147.884 16.64C148.028 16.64 148.1 16.832 148.1 17.216C148.1 17.432 148.064 17.672 147.992 17.936C147.944 18.176 147.848 18.428 147.704 18.692C147.368 19.292 146.96 19.952 146.48 20.672C146.024 21.368 145.556 22.04 145.076 22.688C144.644 23.264 144.152 23.792 143.6 24.272C143.048 24.752 142.448 25.16 141.8 25.496ZM138.524 17.828C138.644 17.9 138.776 17.948 138.92 17.972C139.064 17.996 139.208 18.008 139.352 18.008C139.832 18.008 140.312 17.9 140.792 17.684C141.272 17.444 141.68 17.204 142.016 16.964C142.568 16.58 143.036 16.124 143.42 15.596C143.804 15.068 144.02 14.468 144.068 13.796C144.092 13.508 144.02 13.268 143.852 13.076C143.708 12.86 143.444 12.752 143.06 12.752C142.868 12.752 142.628 12.788 142.34 12.86C141.956 12.956 141.572 13.136 141.188 13.4C140.804 13.664 140.432 13.976 140.072 14.336C139.952 14.456 139.736 14.696 139.424 15.056C139.136 15.392 138.86 15.776 138.596 16.208C138.332 16.616 138.2 16.976 138.2 17.288C138.2 17.552 138.308 17.732 138.524 17.828Z" fill="#4F5257"/>
</svg>
