<svg width="90" height="28" viewBox="0 0 90 28" fill="none" xmlns="http://www.w3.org/2000/svg">
<g filter="url(#filter0_b_7017_1058)">
<rect x="90" y="27.2444" width="90" height="27.2444" rx="13.6222" transform="rotate(180 90 27.2444)" fill="#52748A"/>
<rect x="88.5" y="25.7444" width="87" height="24.2444" rx="12.1222" transform="rotate(180 88.5 25.7444)" stroke="url(#paint0_linear_7017_1058)" stroke-width="3"/>
<path d="M54.8299 9.10882C55.0759 8.83822 55.0513 8.42001 54.7807 8.174C54.5101 7.928 54.0919 7.9526 53.8459 8.2232L45.2357 17.7436C45.0143 17.9896 44.6945 17.9896 44.4731 17.7436L36.1581 8.2232C35.9121 7.9526 35.4939 7.928 35.2232 8.1494C34.9526 8.39541 34.928 8.81362 35.1494 9.08422L43.489 18.6046C44.227 19.4411 45.4571 19.4657 46.2197 18.6292L54.8299 9.10882Z" fill="#F9FAFB" stroke="#F9FAFB" stroke-width="1.5"/>
</g>
<defs>
<filter id="filter0_b_7017_1058" x="-15" y="-15" width="120" height="57.2444" filterUnits="userSpaceOnUse" color-interpolation-filters="sRGB">
<feFlood flood-opacity="0" result="BackgroundImageFix"/>
<feGaussianBlur in="BackgroundImageFix" stdDeviation="7.5"/>
<feComposite in2="SourceAlpha" operator="in" result="effect1_backgroundBlur_7017_1058"/>
<feBlend mode="normal" in="SourceGraphic" in2="effect1_backgroundBlur_7017_1058" result="shape"/>
</filter>
<linearGradient id="paint0_linear_7017_1058" x1="134.4" y1="27.2988" x2="135.955" y2="54.486" gradientUnits="userSpaceOnUse">
<stop stop-color="#52748A" stop-opacity="0"/>
<stop offset="0.5" stop-color="white"/>
<stop offset="0.68" stop-color="#C1CDD5" stop-opacity="0.64"/>
<stop offset="1" stop-color="#52748A" stop-opacity="0"/>
</linearGradient>
</defs>
</svg>
